<?xml version="1.0" standalone="no"?>
<!DOCTYPE svg PUBLIC "-//W3C//DTD SVG 20010904//EN"
 "http://www.w3.org/TR/2001/REC-SVG-20010904/DTD/svg10.dtd">
<svg version="1.0" xmlns="http://www.w3.org/2000/svg"
 width="578.000000pt" height="432.000000pt" viewBox="0 0 578.000000 432.000000"
 preserveAspectRatio="xMidYMid meet">

<g transform="translate(0.000000,432.000000) scale(0.100000,-0.100000)"
fill="#000000" stroke="none">
<path d="M2401 2649 l-161 -162 0 -328 0 -329 157 -160 157 -160 125 0 c142 0
164 7 192 60 15 28 19 57 19 147 l0 113 -165 0 -165 0 0 330 0 330 165 0 165
0 0 113 c0 90 -4 119 -19 147 -27 52 -51 60 -188 60 l-121 0 -161 -161z"/>
<path d="M3220 2650 l0 -160 115 0 c186 0 205 19 205 205 l0 115 -160 0 -160
0 0 -160z"/>
<path d="M2768 2363 c-135 -137 -148 -155 -148 -203 0 -48 13 -66 148 -202
l127 -128 159 0 160 0 -157 159 c-86 87 -157 164 -157 172 0 7 57 69 127 138
70 69 141 141 156 159 l29 32 -159 0 -158 0 -127 -127z"/>
<path d="M3220 1670 l0 -160 160 0 160 0 0 114 c0 133 -7 159 -52 186 -28 17
-51 20 -150 20 l-118 0 0 -160z"/>
</g>
</svg>
